<?xml version="1.0" encoding="UTF-8"?>
<!DOCTYPE svg PUBLIC "-//W3C//DTD SVG 1.1//EN" "http://www.w3.org/Graphics/SVG/1.1/DTD/svg11.dtd">
<!-- Creator: CorelDRAW X7 -->
<svg xmlns="http://www.w3.org/2000/svg" xml:space="preserve" width="3.79921in" height="1.22047in" version="1.1" style="shape-rendering:geometricPrecision; text-rendering:geometricPrecision; image-rendering:optimizeQuality; fill-rule:evenodd; clip-rule:evenodd"
viewBox="0 0 3799 1220"
 xmlns:xlink="http://www.w3.org/1999/xlink">
 <defs>
  <style type="text/css">
   <![CDATA[
    .fil0 {fill:#A03367;fill-rule:nonzero}
    .fil1 {fill:#565858;fill-rule:nonzero}
   ]]>
  </style>
 </defs>
 <g id="Layer_x0020_1">
  <metadata id="CorelCorpID_0Corel-Layer"/>
  <g id="_1791755616720">
   <path class="fil0" d="M187 499c91,0 129,50 146,93 1,4 2,8 2,11 0,13 -10,21 -21,25 -5,2 -10,2 -15,2 -10,0 -19,-4 -24,-16 -13,-35 -34,-62 -86,-62 -72,0 -111,61 -111,149 0,90 38,147 112,147 53,0 75,-26 88,-63 5,-13 14,-19 25,-19 5,0 10,1 15,3 12,3 22,11 22,23 0,4 -1,8 -3,13 -19,47 -55,97 -149,97 -112,0 -174,-82 -174,-201 0,-118 60,-202 173,-202z"/>
   <path class="fil0" d="M396 532c0,-18 13,-27 32,-27 17,0 31,9 31,27l0 15c0,9 -3,21 -4,32 11,-33 46,-76 105,-78 6,0 11,0 16,0 10,0 17,1 27,3 16,2 22,12 22,25 0,3 -1,8 -1,12 -3,14 -13,27 -27,27 -2,0 -4,0 -6,-1 -10,-2 -19,-4 -33,-4 -30,0 -53,16 -70,38 -18,22 -28,47 -29,76l0 190c0,19 -14,28 -31,28 -19,0 -32,-9 -32,-28l0 -335z"/>
   <path class="fil0" d="M904 661c7,0 10,-2 10,-9l0 -3c-8,-49 -38,-99 -101,-99 -67,0 -102,44 -111,111l202 0zm-204 51c1,84 43,137 117,137 50,0 78,-24 94,-61 6,-12 15,-17 25,-17 5,0 10,1 14,3 12,3 22,11 22,24 0,4 -1,8 -4,12 -22,46 -62,91 -151,91 -113,0 -179,-80 -179,-199 0,-119 62,-203 175,-203 100,0 157,79 164,169l0 6c0,24 -13,38 -35,38l-242 0z"/>
   <path class="fil0" d="M1070 698c0,91 40,149 109,149 73,0 117,-62 117,-148 0,-84 -41,-146 -117,-146 -69,0 -109,58 -109,145zm225 -321c0,-18 13,-27 30,-27 20,0 31,9 31,27l0 490c0,19 -12,28 -31,28 -20,0 -30,-11 -30,-26l0 -14c0,-8 1,-22 2,-32 -23,48 -63,78 -127,78 -100,0 -164,-79 -164,-203 0,-121 63,-199 165,-199 64,0 103,31 127,80 -2,-16 -3,-36 -3,-51l0 -151z"/>
   <path class="fil0" d="M1427 532c0,-18 12,-27 31,-27 19,0 32,9 32,27l0 335c0,19 -13,28 -32,28 -19,0 -31,-9 -31,-28l0 -335zm78 -137c0,27 -20,47 -46,47 -26,0 -47,-20 -47,-47 0,-26 21,-46 47,-46 26,0 46,20 46,46z"/>
   <path class="fil0" d="M1602 426c0,-18 11,-28 31,-28 18,0 31,10 31,28l0 83 88 0c17,0 26,11 26,27 0,16 -9,27 -26,27l-88 0 0 231c0,34 14,49 40,49 17,0 29,-5 40,-12 5,-2 9,-4 13,-4 10,0 18,8 23,18 2,5 2,11 2,15 0,10 -4,20 -14,25 -20,10 -39,15 -68,15 -57,0 -98,-28 -98,-100l0 -237 -54 0c-17,0 -24,-11 -24,-27 0,-15 7,-27 25,-27l53 0 0 -83z"/>
   <path class="fil1" d="M2161 693c0,-34 -5,-83 -14,-110 -41,15 -76,-8 -76,-39 0,-26 13,-49 42,-49 49,0 75,54 75,198 0,134 -59,224 -146,224 -90,0 -129,-35 -133,-107l-15 -250c0,-13 -9,-17 -21,-17l-27 0c-7,0 -14,-3 -14,-10 0,-8 7,-12 14,-12l75 0c30,0 41,18 43,39l13 253c1,38 18,74 72,74 84,0 112,-108 112,-194z"/>
   <path class="fil1" d="M2395 887c51,0 95,-29 100,-32 3,-2 7,-2 8,-2 6,0 9,2 9,6 0,13 -27,27 -52,36 -27,10 -60,20 -102,18 -64,0 -110,-32 -110,-77l0 -293c0,-19 18,-35 38,-35 22,0 39,16 39,35l0 293c0,24 26,51 70,51zm-65 -574c0,30 -19,54 -44,54 -24,0 -44,-24 -44,-54 0,-28 20,-53 44,-53 25,0 44,25 44,53z"/>
   <path class="fil1" d="M2582 75c-61,0 -97,60 -97,161 0,138 81,263 210,280 0,-404 -69,-441 -113,-441zm14 459c-89,18 -116,132 -116,180 0,123 40,181 107,181 77,0 108,-80 108,-359 -28,-2 -58,-10 -81,-20 0,9 -3,15 -18,18zm-141 -298c0,-119 53,-209 150,-209 90,0 168,69 168,494l77 0c8,0 13,4 13,12 0,5 -5,10 -13,10l-77 0c0,213 -27,374 -186,374 -132,0 -189,-91 -189,-203 0,-91 80,-206 203,-206 -86,-39 -146,-161 -146,-272z"/>
   <path class="fil1" d="M2938 1071c0,62 32,113 89,113 49,0 58,-48 59,-86l8 -267c-16,44 -52,59 -75,73 -44,26 -81,93 -81,167zm-137 -528l-27 0c-8,0 -14,-4 -14,-10 0,-8 6,-12 14,-12l80 0c30,0 41,18 42,39l22 251c4,47 21,76 73,76 45,0 97,-49 99,-116l10 -224c0,-23 16,-39 39,-39 26,0 39,19 39,39l-18 539c-3,61 -49,119 -133,119 -72,0 -123,-47 -123,-137 0,-54 22,-111 64,-151 -86,0 -118,-44 -124,-99l-24 -257c-1,-13 -7,-18 -19,-18z"/>
   <path class="fil1" d="M3320 714c0,81 14,173 97,173 78,0 105,-89 105,-192 0,-81 -19,-164 -97,-164 -64,0 -105,83 -105,183zm236 -223c23,0 39,16 39,35l0 310c0,24 27,51 69,51 53,0 97,-29 101,-32 4,-2 6,-2 9,-2 5,0 8,2 8,6 0,13 -27,27 -52,36 -26,10 -61,20 -102,18 -64,0 -111,-32 -111,-77 -19,54 -67,81 -134,81 -105,0 -145,-113 -145,-203 0,-108 78,-206 173,-206 53,0 91,21 106,56l0 -38c0,-19 18,-35 39,-35z"/>
  </g>
 </g>
</svg>
