<?xml version="1.0" encoding="UTF-8" ?>
<!DOCTYPE svg PUBLIC "-//W3C//DTD SVG 1.1//EN" "http://www.w3.org/Graphics/SVG/1.1/DTD/svg11.dtd">
<svg width="2330pt" height="429pt" viewBox="0 0 2330 429" version="1.1" xmlns="http://www.w3.org/2000/svg">
<path fill="rgba(0,0,0,0)" d=" M 0.00 0.00 L 260.37 0.00 C 231.21 0.98 202.43 12.11 180.48 31.39 C 158.93 50.01 143.92 76.03 138.70 104.04 C 136.51 115.15 136.06 126.54 136.73 137.83 C 108.33 136.12 79.34 143.68 55.87 159.88 C 30.66 177.06 11.87 203.47 4.24 233.04 C 2.07 241.10 0.96 249.40 0.00 257.68 L 0.00 0.00 Z" />
<path fill="#6ab9cb" d=" M 260.37 0.00 L 269.60 0.00 C 301.08 1.29 331.91 14.48 354.35 36.64 C 391.72 73.94 429.00 111.34 466.36 148.65 C 476.91 159.73 477.19 178.62 467.04 190.04 C 458.64 200.27 443.47 204.03 431.28 198.84 C 427.42 197.32 423.94 194.93 420.99 192.02 C 382.53 153.48 344.01 114.99 305.54 76.47 C 295.33 66.09 281.60 59.23 267.15 57.46 C 248.44 54.92 228.76 61.06 214.84 73.82 C 205.13 82.55 198.12 94.25 195.09 106.96 C 190.87 124.05 193.94 142.79 203.42 157.62 C 207.75 164.72 213.91 170.40 219.90 176.06 C 256.75 212.89 293.54 249.79 330.40 286.60 C 340.24 297.42 340.77 315.18 331.58 326.55 C 323.44 337.42 307.91 341.63 295.36 336.51 C 289.12 334.42 284.25 329.86 279.93 325.09 C 245.14 290.20 210.28 255.38 175.46 220.51 C 171.16 216.16 167.09 211.51 162.16 207.84 C 149.16 197.88 132.32 193.13 116.03 194.78 C 101.44 196.18 87.36 202.62 76.89 212.89 C 66.76 222.57 59.98 235.63 57.77 249.46 C 54.29 270.02 61.37 292.08 76.36 306.61 C 85.74 315.93 95.22 325.14 104.56 334.50 C 115.71 346.16 115.18 366.45 103.57 377.61 C 92.45 389.45 71.92 390.03 60.18 378.80 C 52.34 370.99 44.40 363.27 36.54 355.48 C 14.14 332.76 0.94 301.42 0.00 269.56 L 0.00 257.68 C 0.96 249.40 2.07 241.10 4.24 233.04 C 11.87 203.47 30.66 177.06 55.87 159.88 C 79.34 143.68 108.33 136.12 136.73 137.83 C 136.06 126.54 136.51 115.15 138.70 104.04 C 143.92 76.03 158.93 50.01 180.48 31.39 C 202.43 12.11 231.21 0.98 260.37 0.00 Z" />
<path fill="rgba(0,0,0,0.0)" d=" M 269.60 0.00 L 2330.00 0.00 L 2330.00 247.89 C 2328.95 237.84 2323.08 228.81 2315.08 222.84 C 2298.15 209.89 2276.87 205.26 2258.01 196.00 C 2252.16 192.95 2245.86 189.31 2243.03 183.03 C 2240.68 176.48 2242.82 168.65 2248.16 164.18 C 2254.70 158.63 2263.65 157.02 2272.01 157.22 C 2280.09 157.25 2288.21 159.45 2294.97 163.93 C 2299.68 166.86 2303.67 170.97 2308.87 173.11 C 2313.63 174.66 2319.63 173.99 2323.08 170.03 C 2326.64 166.03 2326.24 159.79 2323.65 155.39 C 2320.15 149.61 2314.39 145.65 2308.49 142.63 C 2293.00 135.12 2275.12 131.65 2258.06 134.74 C 2244.33 137.21 2230.72 143.91 2222.42 155.44 C 2216.14 164.14 2213.46 175.42 2215.22 186.01 C 2216.87 195.51 2223.39 203.41 2231.09 208.86 C 2248.46 221.35 2269.79 226.23 2288.19 236.81 C 2293.28 239.91 2298.37 243.68 2301.06 249.16 C 2303.65 254.37 2303.02 260.91 2299.78 265.70 C 2295.35 272.42 2287.65 276.23 2279.94 277.75 C 2267.54 279.99 2254.38 277.79 2243.40 271.60 C 2237.65 268.51 2232.62 264.29 2227.01 261.00 C 2223.74 259.11 2219.77 257.70 2216.03 258.92 C 2209.89 260.66 2206.60 267.96 2208.31 273.90 C 2209.66 278.80 2213.25 282.71 2217.07 285.91 C 2228.92 295.36 2243.98 299.93 2258.87 301.62 C 2277.69 303.81 2298.21 300.48 2313.26 288.28 C 2322.99 280.57 2328.66 268.66 2330.00 256.45 L 2330.00 429.00 L 300.50 429.00 C 323.73 428.08 346.75 421.02 366.21 408.26 C 392.02 391.50 411.51 365.18 419.66 335.46 C 423.74 321.09 425.00 306.04 424.18 291.16 C 449.19 292.59 474.68 287.00 496.42 274.44 C 528.97 256.00 552.51 222.60 558.83 185.71 C 560.45 175.21 561.83 164.51 560.51 153.89 C 558.70 129.21 549.70 105.08 534.62 85.43 C 524.93 72.56 512.30 62.39 501.22 50.80 C 493.68 42.71 481.68 39.45 471.02 42.19 C 459.65 44.95 450.37 54.58 448.01 66.04 C 445.80 76.16 448.90 87.35 456.34 94.63 C 465.80 103.85 475.15 113.17 484.56 122.44 C 496.86 134.53 504.05 151.69 503.84 168.95 C 504.03 183.86 498.67 198.70 489.29 210.26 C 479.14 222.87 464.14 231.44 448.11 233.76 C 428.78 236.80 408.21 230.53 393.94 217.12 C 356.59 179.46 318.98 142.06 281.53 104.49 C 277.72 100.59 274.02 96.35 268.98 94.00 C 260.00 89.28 248.76 88.99 239.72 93.72 C 230.53 98.34 224.02 107.75 222.86 117.97 C 221.75 126.94 224.74 136.39 230.98 142.96 C 268.78 180.52 306.24 218.42 344.08 255.94 C 355.10 265.60 363.33 278.59 366.19 293.05 C 369.36 308.09 367.04 324.22 359.68 337.72 C 350.89 354.14 334.77 366.42 316.57 370.42 C 295.38 375.41 271.89 368.88 256.41 353.54 C 217.59 314.70 178.76 275.87 139.96 237.01 C 132.79 229.80 121.99 226.34 111.99 228.34 C 100.01 230.42 89.82 240.17 87.15 252.02 C 84.77 261.96 87.54 273.02 94.59 280.47 C 132.16 317.87 169.52 355.49 207.07 392.92 C 229.76 415.01 260.82 428.00 292.43 429.00 L 0.00 429.00 L 0.00 269.56 C 0.94 301.42 14.14 332.76 36.54 355.48 C 44.40 363.27 52.34 370.99 60.18 378.80 C 71.92 390.03 92.45 389.45 103.57 377.61 C 115.18 366.45 115.71 346.16 104.56 334.50 C 95.22 325.14 85.74 315.93 76.36 306.61 C 61.37 292.08 54.29 270.02 57.77 249.46 C 59.98 235.63 66.76 222.57 76.89 212.89 C 87.36 202.62 101.44 196.18 116.03 194.78 C 132.32 193.13 149.16 197.88 162.16 207.84 C 167.09 211.51 171.16 216.16 175.46 220.51 C 210.28 255.38 245.14 290.20 279.93 325.09 C 284.25 329.86 289.12 334.42 295.36 336.51 C 307.91 341.63 323.44 337.42 331.58 326.55 C 340.77 315.18 340.24 297.42 330.40 286.60 C 293.54 249.79 256.75 212.89 219.90 176.06 C 213.91 170.40 207.75 164.72 203.42 157.62 C 193.94 142.79 190.87 124.05 195.09 106.96 C 198.12 94.25 205.13 82.55 214.84 73.82 C 228.76 61.06 248.44 54.92 267.15 57.46 C 281.60 59.23 295.33 66.09 305.54 76.47 C 344.01 114.99 382.53 153.48 420.99 192.02 C 423.94 194.93 427.42 197.32 431.28 198.84 C 443.47 204.03 458.64 200.27 467.04 190.04 C 477.19 178.62 476.91 159.73 466.36 148.65 C 429.00 111.34 391.72 73.94 354.35 36.64 C 331.91 14.48 301.08 1.29 269.60 0.00 Z" />
<path fill="#6ab9cb" d=" M 471.02 42.19 C 481.68 39.45 493.68 42.71 501.22 50.80 C 512.30 62.39 524.93 72.56 534.62 85.43 C 549.70 105.08 558.70 129.21 560.51 153.89 C 561.83 164.51 560.45 175.21 558.83 185.71 C 552.51 222.60 528.97 256.00 496.42 274.44 C 474.68 287.00 449.19 292.59 424.18 291.16 C 425.00 306.04 423.74 321.09 419.66 335.46 C 411.51 365.18 392.02 391.50 366.21 408.26 C 346.75 421.02 323.73 428.08 300.50 429.00 L 292.43 429.00 C 260.82 428.00 229.76 415.01 207.07 392.92 C 169.52 355.49 132.16 317.87 94.59 280.47 C 87.54 273.02 84.77 261.96 87.15 252.02 C 89.82 240.17 100.01 230.42 111.99 228.34 C 121.99 226.34 132.79 229.80 139.96 237.01 C 178.76 275.87 217.59 314.70 256.41 353.54 C 271.89 368.88 295.38 375.41 316.57 370.42 C 334.77 366.42 350.89 354.14 359.68 337.72 C 367.04 324.22 369.36 308.09 366.19 293.05 C 363.33 278.59 355.10 265.60 344.08 255.94 C 306.24 218.42 268.78 180.52 230.98 142.96 C 224.74 136.39 221.75 126.94 222.86 117.97 C 224.02 107.75 230.53 98.34 239.72 93.72 C 248.76 88.99 260.00 89.28 268.98 94.00 C 274.02 96.35 277.72 100.59 281.53 104.49 C 318.98 142.06 356.59 179.46 393.94 217.12 C 408.21 230.53 428.78 236.80 448.11 233.76 C 464.14 231.44 479.14 222.87 489.29 210.26 C 498.67 198.70 504.03 183.86 503.84 168.95 C 504.05 151.69 496.86 134.53 484.56 122.44 C 475.15 113.17 465.80 103.85 456.34 94.63 C 448.90 87.35 445.80 76.16 448.01 66.04 C 450.37 54.58 459.65 44.95 471.02 42.19 Z" />
<path fill="#6ab9cb" d=" M 1112.58 66.54 C 1120.19 60.18 1132.17 59.96 1140.00 66.04 C 1145.75 70.49 1148.78 77.81 1148.82 84.98 C 1148.88 105.66 1148.79 126.35 1148.86 147.03 C 1169.19 129.78 1200.12 126.71 1223.40 139.70 C 1240.07 148.93 1251.41 165.63 1257.37 183.40 C 1262.99 200.48 1264.92 218.96 1261.80 236.73 C 1258.41 255.69 1249.30 273.96 1234.83 286.88 C 1221.41 298.99 1202.97 305.43 1184.93 303.83 C 1170.93 302.53 1156.80 295.89 1148.97 283.85 C 1147.34 289.72 1144.52 295.79 1139.08 299.02 C 1130.64 304.04 1118.80 303.33 1111.56 296.46 C 1106.37 291.49 1104.15 284.10 1104.30 277.04 C 1104.32 213.34 1104.29 149.65 1104.31 85.95 C 1104.30 78.75 1106.94 71.24 1112.58 66.54 Z" />
<path fill="#6ab9cb" d=" M 1391.35 62.48 C 1399.06 60.20 1408.08 62.40 1413.53 68.42 C 1417.86 73.12 1419.85 79.62 1419.80 85.95 C 1419.81 149.96 1419.82 213.97 1419.80 277.99 C 1419.86 284.78 1417.50 291.80 1412.50 296.54 C 1405.83 302.84 1395.12 303.99 1387.09 299.72 C 1379.19 295.69 1375.14 286.55 1375.28 277.97 C 1375.27 213.98 1375.27 149.98 1375.28 85.99 C 1374.94 75.85 1381.06 65.03 1391.35 62.48 Z" />
<path fill="#6ab9cb" d=" M 1311.18 67.21 C 1325.04 63.80 1340.07 74.93 1341.35 89.04 C 1342.83 102.55 1331.74 116.24 1318.00 116.77 C 1303.88 117.98 1290.92 104.91 1291.26 90.97 C 1291.29 79.69 1300.41 69.68 1311.18 67.21 Z" />
<path fill="#6ab9cb" d=" M 716.50 132.73 C 732.43 129.66 749.75 133.36 762.57 143.46 C 766.71 146.51 770.12 150.38 773.59 154.15 C 784.97 141.62 801.03 133.12 817.99 131.78 C 833.75 131.17 850.41 134.94 862.68 145.33 C 875.70 156.12 881.51 173.43 881.61 189.94 C 881.65 218.96 881.60 247.98 881.64 276.99 C 881.78 283.81 879.74 290.90 874.93 295.90 C 868.95 302.07 859.20 303.86 851.26 300.80 C 844.76 298.46 839.92 292.59 838.14 286.00 C 836.20 279.15 837.26 271.98 836.89 264.98 C 836.86 242.66 837.02 220.35 836.85 198.04 C 836.80 190.13 834.33 181.95 828.78 176.15 C 818.94 165.83 799.82 166.67 791.18 178.13 C 786.37 184.29 784.64 192.30 784.61 199.98 C 784.61 225.98 784.63 251.99 784.61 277.99 C 784.66 285.18 781.97 292.67 776.35 297.36 C 768.25 304.12 755.16 303.89 747.47 296.59 C 741.74 291.43 739.90 283.43 739.89 275.99 C 739.82 250.01 739.90 224.02 739.85 198.03 C 739.83 190.12 737.32 181.97 731.81 176.16 C 721.27 165.14 699.92 166.64 692.16 180.18 C 688.66 186.13 687.68 193.17 687.62 199.97 C 687.62 225.99 687.64 252.00 687.62 278.02 C 687.65 285.43 684.79 293.21 678.78 297.81 C 670.63 304.14 657.94 303.70 650.44 296.56 C 645.08 291.59 643.00 284.07 642.72 276.99 C 642.72 237.66 642.73 198.33 642.72 159.00 C 642.97 152.60 644.54 145.87 648.85 140.95 C 656.30 131.91 671.51 131.02 680.15 138.78 C 683.42 141.69 684.91 145.93 685.92 150.06 C 694.06 141.39 704.75 134.96 716.50 132.73 Z" />
<path fill="#6ab9cb" d=" M 980.44 132.71 C 998.92 129.61 1018.53 133.53 1034.24 143.80 C 1059.09 159.85 1073.46 189.68 1072.86 218.98 C 1073.20 249.14 1057.74 280.20 1030.67 294.72 C 1013.31 304.23 992.33 306.38 973.20 301.68 C 956.29 297.56 941.04 287.28 930.69 273.32 C 909.06 244.44 907.29 202.57 925.52 171.59 C 937.01 151.48 957.37 136.28 980.44 132.71 Z" />
<path fill="#6ab9cb" d=" M 1516.04 132.55 C 1535.02 129.60 1555.03 134.24 1570.79 145.22 C 1590.81 159.08 1604.70 181.75 1607.37 206.01 C 1607.88 212.60 1608.34 219.85 1604.74 225.73 C 1601.71 230.71 1595.56 232.62 1590.03 232.71 C 1557.70 232.86 1525.36 232.56 1493.03 232.86 C 1494.19 240.37 1497.29 247.75 1502.80 253.11 C 1511.36 261.81 1524.04 265.21 1535.98 264.86 C 1546.26 264.90 1555.97 260.74 1564.83 255.87 C 1570.73 252.83 1576.34 248.82 1582.91 247.35 C 1595.78 244.93 1607.56 259.84 1602.89 271.89 C 1599.88 279.07 1593.57 284.17 1587.21 288.30 C 1575.32 295.72 1561.76 300.22 1548.00 302.60 C 1528.36 305.98 1507.41 303.64 1489.71 294.19 C 1475.74 286.78 1464.27 274.89 1457.17 260.77 C 1440.80 228.24 1445.19 185.90 1469.44 158.39 C 1481.29 144.65 1498.01 135.07 1516.04 132.55 Z" />
<path fill="#6ab9cb" d=" M 1310.26 134.36 C 1317.15 132.52 1325.02 133.87 1330.50 138.58 C 1336.09 143.32 1338.65 150.82 1338.64 158.01 C 1338.69 196.68 1338.62 235.36 1338.67 274.04 C 1338.93 280.65 1338.05 287.63 1334.15 293.17 C 1329.04 300.90 1318.57 304.01 1309.87 301.32 C 1303.17 299.52 1297.84 294.04 1295.63 287.54 C 1293.29 280.97 1294.21 273.90 1294.14 267.07 C 1294.08 230.03 1294.06 193.00 1294.18 155.96 C 1294.29 146.37 1300.69 136.71 1310.26 134.36 Z" />
<path fill="#6ab9cb" d=" M 1625.14 140.20 C 1629.03 132.20 1641.57 131.26 1647.13 137.93 C 1649.76 140.87 1651.16 144.64 1652.35 148.35 C 1659.54 171.56 1666.79 194.75 1673.99 217.96 C 1678.53 232.06 1682.52 246.34 1687.40 260.32 C 1697.94 228.30 1707.85 196.07 1718.13 163.96 C 1720.85 156.11 1722.65 147.87 1726.34 140.39 C 1730.38 131.53 1744.86 131.09 1749.54 139.55 C 1752.82 145.22 1754.21 151.72 1756.32 157.87 C 1767.26 192.02 1777.84 226.30 1788.99 260.38 C 1800.25 225.60 1810.78 190.57 1821.77 155.70 C 1823.72 149.88 1824.87 143.58 1828.66 138.58 C 1834.00 131.21 1847.44 131.93 1851.35 140.40 C 1854.08 146.26 1851.38 152.70 1849.64 158.44 C 1834.79 201.63 1819.97 244.82 1805.12 288.00 C 1803.28 292.96 1800.98 298.48 1795.93 300.91 C 1790.44 303.33 1783.13 302.71 1779.02 298.02 C 1775.08 293.52 1773.76 287.51 1771.93 281.98 C 1760.71 246.86 1749.74 211.66 1738.36 176.59 C 1735.24 183.44 1733.63 190.87 1731.14 197.96 C 1721.65 227.87 1712.15 257.78 1702.65 287.69 C 1701.06 292.50 1698.92 297.63 1694.44 300.41 C 1689.74 303.04 1683.50 302.95 1678.96 300.04 C 1674.60 296.99 1672.62 291.79 1670.92 286.97 C 1656.03 243.60 1641.10 200.25 1626.23 156.87 C 1624.61 151.56 1622.38 145.52 1625.14 140.20 Z" />
<path fill="#6ab9cb" d=" M 1933.00 135.32 C 1946.06 132.47 1960.30 132.74 1972.49 138.69 C 1981.02 142.71 1988.03 149.21 1994.45 155.99 C 1994.92 150.09 1993.25 143.29 1997.27 138.26 C 2001.94 132.15 2012.10 132.10 2016.98 137.98 C 2021.01 142.69 2020.05 149.33 2019.97 155.06 C 2019.96 178.38 2020.09 201.70 2019.88 225.02 C 2019.82 247.00 2020.47 268.97 2019.78 290.94 C 2019.52 298.50 2011.09 303.93 2004.02 301.81 C 1999.04 300.65 1995.07 296.14 1994.70 291.02 C 1994.32 286.36 1994.68 281.68 1994.44 277.01 C 1988.45 285.13 1981.16 292.55 1971.99 296.99 C 1958.14 303.91 1941.69 303.43 1927.19 298.90 C 1912.11 294.14 1899.23 283.52 1890.88 270.19 C 1880.15 253.31 1875.75 232.92 1876.57 213.07 C 1877.46 194.13 1883.20 175.05 1894.87 159.92 C 1904.22 147.63 1917.87 138.60 1933.00 135.32 Z" />
<path fill="#6ab9cb" d=" M 2055.62 144.98 C 2055.61 138.53 2061.78 133.50 2067.99 133.57 C 2074.08 133.32 2079.77 137.64 2081.57 143.39 C 2094.43 181.37 2106.82 219.51 2119.89 257.42 C 2130.38 225.97 2140.61 194.43 2151.02 162.95 C 2153.66 155.54 2155.55 147.84 2158.69 140.61 C 2162.05 133.33 2172.44 131.31 2178.49 136.44 C 2182.27 139.19 2183.41 144.21 2182.42 148.62 C 2180.81 156.13 2177.88 163.28 2175.46 170.55 C 2153.79 232.50 2132.12 294.46 2110.46 356.42 C 2108.97 360.81 2106.03 365.08 2101.43 366.56 C 2094.82 369.07 2086.16 365.20 2084.71 358.02 C 2083.81 352.70 2086.14 347.59 2087.78 342.66 C 2093.46 327.40 2099.17 312.15 2104.96 296.93 C 2105.45 295.61 2105.88 294.14 2105.28 292.77 C 2090.27 249.47 2075.30 206.17 2060.30 162.87 C 2058.44 157.00 2055.87 151.20 2055.62 144.98 Z" />
<path fill="#6ab9cb" d=" M 2258.06 134.74 C 2275.12 131.65 2293.00 135.12 2308.49 142.63 C 2314.39 145.65 2320.15 149.61 2323.65 155.39 C 2326.24 159.79 2326.64 166.03 2323.08 170.03 C 2319.63 173.99 2313.63 174.66 2308.87 173.11 C 2303.67 170.97 2299.68 166.86 2294.97 163.93 C 2288.21 159.45 2280.09 157.25 2272.01 157.22 C 2263.65 157.02 2254.70 158.63 2248.16 164.18 C 2242.82 168.65 2240.68 176.48 2243.03 183.03 C 2245.86 189.31 2252.16 192.95 2258.01 196.00 C 2276.87 205.26 2298.15 209.89 2315.08 222.84 C 2323.08 228.81 2328.95 237.84 2330.00 247.89 L 2330.00 256.45 C 2328.66 268.66 2322.99 280.57 2313.26 288.28 C 2298.21 300.48 2277.69 303.81 2258.87 301.62 C 2243.98 299.93 2228.92 295.36 2217.07 285.91 C 2213.25 282.71 2209.66 278.80 2208.31 273.90 C 2206.60 267.96 2209.89 260.66 2216.03 258.92 C 2219.77 257.70 2223.74 259.11 2227.01 261.00 C 2232.62 264.29 2237.65 268.51 2243.40 271.60 C 2254.38 277.79 2267.54 279.99 2279.94 277.75 C 2287.65 276.23 2295.35 272.42 2299.78 265.70 C 2303.02 260.91 2303.65 254.37 2301.06 249.16 C 2298.37 243.68 2293.28 239.91 2288.19 236.81 C 2269.79 226.23 2248.46 221.35 2231.09 208.86 C 2223.39 203.41 2216.87 195.51 2215.22 186.01 C 2213.46 175.42 2216.14 164.14 2222.42 155.44 C 2230.72 143.91 2244.33 137.21 2258.06 134.74 Z" />
<path fill="#fefeff" d=" M 1941.51 157.76 C 1952.19 156.14 1963.77 157.83 1972.64 164.34 C 1983.86 172.43 1989.74 185.88 1992.43 199.08 C 1995.92 217.33 1994.69 236.93 1986.78 253.91 C 1982.60 262.71 1975.90 270.61 1966.96 274.78 C 1951.32 282.03 1930.77 279.10 1919.17 265.86 C 1907.48 252.58 1903.90 234.21 1903.75 216.99 C 1904.20 199.77 1908.15 181.29 1920.51 168.51 C 1926.13 162.81 1933.60 159.01 1941.51 157.76 Z" />
<path fill="#fefeff" d=" M 1505.61 176.62 C 1517.46 166.65 1536.17 166.37 1548.54 175.55 C 1557.09 181.99 1561.73 192.42 1563.01 202.85 C 1539.37 202.99 1515.73 202.88 1492.09 202.86 C 1493.35 192.92 1497.77 183.10 1505.61 176.62 Z" />
<path fill="#fefeff" d=" M 987.18 173.16 C 996.45 171.45 1006.59 173.90 1013.63 180.30 C 1020.52 186.39 1024.60 195.06 1026.64 203.90 C 1029.59 216.56 1028.62 230.22 1023.32 242.14 C 1019.99 249.60 1014.45 256.34 1007.04 260.00 C 996.17 265.26 982.17 263.98 972.90 256.05 C 965.65 249.98 961.34 241.10 959.25 232.01 C 956.15 218.40 957.60 203.59 963.99 191.11 C 968.57 182.12 977.00 174.74 987.18 173.16 Z" />
<path fill="#fefeff" d=" M 1176.39 173.49 C 1184.51 171.56 1193.51 172.87 1200.43 177.66 C 1207.27 182.30 1211.95 189.53 1214.82 197.17 C 1220.35 211.90 1219.87 228.88 1213.02 243.10 C 1209.92 249.52 1205.25 255.36 1199.08 259.05 C 1188.71 265.26 1174.58 264.36 1165.12 256.83 C 1157.38 250.72 1152.94 241.37 1150.71 231.95 C 1147.35 217.66 1148.52 201.85 1155.94 188.98 C 1160.28 181.33 1167.70 175.32 1176.39 173.49 Z" />
</svg>
