<?xml version="1.0" encoding="UTF-8"?>
<svg width="231px" height="43px" viewBox="0 0 231 43" version="1.1" xmlns="http://www.w3.org/2000/svg" xmlns:xlink="http://www.w3.org/1999/xlink">
    <!-- Generator: Sketch 41 (35326) - http://www.bohemiancoding.com/sketch -->
    <title>Untitled</title>
    <desc>Created with Sketch.</desc>
    <defs></defs>
    <g id="Page-1" stroke="none" stroke-width="1" fill="none" fill-rule="evenodd">
        <g id="mwayslogo">
            <g id="Group">
                <path d="M25.7031914,0 L26.614358,0 C29.7219989,0.127346149 32.7654732,1.42943585 34.9807039,3.61702551 C38.6697935,7.29920487 42.3499985,10.991256 46.0381009,14.6744225 C47.0795752,15.7682174 47.1072163,17.6329994 46.1052291,18.7603583 C45.2759984,19.7702429 43.7784471,20.1414224 42.5750754,19.6290762 C42.1940241,19.4790249 41.8504857,19.2430891 41.5592677,18.9558198 C37.7625756,15.1512302 33.9599603,11.3515765 30.162281,7.54896127 C29.1543707,6.524269 27.7989734,5.84706389 26.372499,5.67233313 C24.5254863,5.42158955 22.5827171,6.02771773 21.2085633,7.28735871 C20.2500121,8.14916637 19.5579993,9.30416633 19.2588839,10.5588714 C18.8422942,12.2459611 19.1453583,14.0959354 20.0812044,15.5599225 C20.5086531,16.2608199 21.1167556,16.8215379 21.7080761,17.3802814 C25.3458324,21.0160633 28.9776656,24.6587555 32.6164091,28.2925631 C33.5877937,29.3606912 33.6401142,31.113922 32.7328963,32.236345 C31.9293322,33.3094091 30.3962425,33.7250116 29.1573323,33.2195757 C28.5413323,33.0132552 28.0605759,32.5631014 27.6341144,32.0922168 C24.1997171,28.6479477 20.7584095,25.2105888 17.3210507,21.7682941 C16.8965635,21.338871 16.4947815,20.8798326 16.008102,20.5175377 C14.7247687,19.534307 13.0623585,19.0653967 11.4542432,19.2282814 C10.0139484,19.3664865 8.62399969,20.00223 7.5904228,21.0160633 C6.59041002,21.9716531 5.92110235,23.2609094 5.70293569,24.6261786 C5.35939724,26.6558196 6.05832029,28.8335374 7.53810229,30.2679092 C8.46407662,31.1879604 9.39992274,32.0971527 10.3219483,33.0211527 C11.4226534,34.1722039 11.3703329,36.175191 10.2242176,37.2768833 C9.12647403,38.4457037 7.09979462,38.5029602 5.94084594,37.3943576 C5.16689725,36.6233705 4.38307677,35.8612679 3.60715372,35.0922551 C1.39587174,32.8493834 0.0927948685,29.755563 0,26.6104093 L0,25.4376401 C0.0947692274,24.6202555 0.204346146,23.8008966 0.418564087,23.0052299 C1.17178201,20.0861403 3.0266922,17.4789994 5.5153716,15.7830251 C7.83228177,14.1837944 10.694115,13.4374867 13.4977046,13.6062944 C13.4315636,12.4917688 13.4759867,11.3673714 13.692179,10.270615 C14.2074867,7.50552537 15.689243,4.93688444 17.8166147,3.0987563 C19.9834736,1.19547432 22.8245761,0.0967435863 25.7031914,0 Z" id="Shape" fill="#FFFFFF"></path>
                <path d="M26.614358,0 L230.012812,0 L230.012812,24.4711914 C229.909158,23.4790761 229.329684,22.587653 228.53994,21.9983069 C226.868646,20.7199095 224.767928,20.2628454 222.906107,19.3487173 C222.328607,19.0476275 221.706684,18.6882942 221.427313,18.0683455 C221.195325,17.421743 221.406582,16.6487815 221.933736,16.2075122 C222.579351,15.6596276 223.462877,15.5006917 224.288159,15.5204353 C225.0858,15.5233969 225.887389,15.7405764 226.554723,16.1828328 C227.019684,16.4720763 227.413569,16.8778071 227.926902,17.0890635 C228.396799,17.2420763 228.989107,17.1759353 229.329684,16.7850122 C229.68112,16.3901404 229.641633,15.7741405 229.385953,15.3397815 C229.04044,14.7691918 228.471825,14.3782687 227.889389,14.0801405 C226.360248,13.3387688 224.595171,12.9962175 222.911043,13.3012559 C221.555646,13.5450893 220.212095,14.2064995 219.392736,15.3447174 C218.772787,16.2035635 218.508223,17.3171019 218.681966,18.362525 C218.844851,19.3003455 219.488492,20.0802172 220.24862,20.61823 C221.963351,21.8512172 224.069005,22.3329607 225.885415,23.3773966 C226.387889,23.6834222 226.890364,24.0555889 227.155915,24.5965632 C227.411594,25.1108837 227.349402,25.7564991 227.029556,26.229358 C226.592235,26.8927426 225.832107,27.268858 225.070992,27.4189093 C223.846889,27.6400375 222.547761,27.422858 221.463838,26.8117939 C220.89621,26.5067555 220.399659,26.0901657 219.845851,25.7653837 C219.523043,25.5788068 219.131133,25.4396145 218.761928,25.5600504 C218.1558,25.7318196 217.831018,26.4524606 217.999825,27.0388452 C218.133095,27.5225631 218.487492,27.9085503 218.864595,28.2244477 C220.034402,29.1573323 221.521095,29.6084733 222.991005,29.7753066 C224.848877,29.9914989 226.874569,29.6627682 228.360274,28.4584092 C229.320799,27.6972939 229.88053,26.5215631 230.012812,25.316217 L230.012812,42.3499985 L29.6647425,42.3499985 C31.9579604,42.259178 34.2304475,41.5622293 36.1514987,40.3025883 C38.6994089,38.6480755 40.6234216,36.0498192 41.4279729,33.1159219 C41.8307421,31.697345 41.9551267,30.2116399 41.874178,28.7427169 C44.3431138,28.8838836 46.8594342,28.3320503 49.0055623,27.0921529 C52.2188315,25.271794 54.5426519,21.9746146 55.1665493,18.3329096 C55.3264724,17.2963712 55.4627031,16.2400892 55.3323954,15.1917046 C55.153716,12.7553457 54.2652545,10.3732817 52.7765878,8.43347406 C51.820011,7.1629741 50.5732033,6.1590126 49.4794085,5.01487161 C48.7350752,4.21624344 47.5504598,3.89442294 46.4981265,4.16491011 C45.3757035,4.43737163 44.459601,5.38802545 44.2266266,6.5193331 C44.00846,7.5183587 44.3144856,8.62301251 45.0489471,9.34167915 C45.9828189,10.2518586 46.9058316,11.1719099 47.8347675,12.0870252 C49.0489982,13.2805252 49.7587803,14.9745251 49.7380495,16.6783968 C49.7568059,18.1502814 49.2276777,19.6152557 48.3017034,20.7564351 C47.2997162,22.0012684 45.8189471,22.8472812 44.2364984,23.0763069 C42.3282805,23.3764094 40.2976524,22.7574479 38.8889473,21.4336403 C35.2018321,17.7159224 31.4890501,14.0238713 27.7920631,10.3150381 C27.4159477,9.9300381 27.0506913,9.51147402 26.5531529,9.27948685 C25.6666657,8.81353814 24.557076,8.78490994 23.6646658,9.25184582 C22.7574479,9.70792273 22.1147941,10.6368586 22.0002813,11.645756 C21.8907043,12.531256 22.185871,13.4641405 22.801871,14.1127174 C26.5334093,17.8205635 30.2313835,21.5619736 33.9668706,25.2658709 C35.0547423,26.2194862 35.867191,27.5018323 36.1495243,28.9292938 C36.4624602,30.4140117 36.2334346,32.0063322 35.5068705,33.3390244 C34.6391398,34.9599731 33.0478065,36.1722295 31.2511399,36.5671012 C29.1593066,37.0597038 26.8404221,36.4150756 25.3122683,34.9007423 C21.4800377,31.0665373 17.6468199,27.2333195 13.8165636,23.3971402 C13.1087559,22.6853838 12.0426021,22.3438197 11.0554227,22.5412556 C9.8727817,22.7465889 8.86684583,23.7090889 8.60326892,24.8788965 C8.36832021,25.8601529 8.64176892,26.9519734 9.33773043,27.6874221 C13.0465636,31.3794732 16.7346661,35.0932423 20.4415249,38.788255 C22.6814351,40.9689344 25.7476145,42.2512805 28.8680887,42.3499985 L0,42.3499985 L0,26.6104093 C0.0927948685,29.755563 1.39587174,32.8493834 3.60715372,35.0922551 C4.38307677,35.8612679 5.16689725,36.6233705 5.94084594,37.3943576 C7.09979462,38.5029602 9.12647403,38.4457037 10.2242176,37.2768833 C11.3703329,36.175191 11.4226534,34.1722039 10.3219483,33.0211527 C9.39992274,32.0971527 8.46407662,31.1879604 7.53810229,30.2679092 C6.05832029,28.8335374 5.35939724,26.6558196 5.70293569,24.6261786 C5.92110235,23.2609094 6.59041002,21.9716531 7.5904228,21.0160633 C8.62399969,20.00223 10.0139484,19.3664865 11.4542432,19.2282814 C13.0623585,19.0653967 14.7247687,19.534307 16.008102,20.5175377 C16.4947815,20.8798326 16.8965635,21.338871 17.3210507,21.7682941 C20.7584095,25.2105888 24.1997171,28.6479477 27.6341144,32.0922168 C28.0605759,32.5631014 28.5413323,33.0132552 29.1573323,33.2195757 C30.3962425,33.7250116 31.9293322,33.3094091 32.7328963,32.236345 C33.6401142,31.113922 33.5877937,29.3606912 32.6164091,28.2925631 C28.9776656,24.6587555 25.3458324,21.0160633 21.7080761,17.3802814 C21.1167556,16.8215379 20.5086531,16.2608199 20.0812044,15.5599225 C19.1453583,14.0959354 18.8422942,12.2459611 19.2588839,10.5588714 C19.5579993,9.30416633 20.2500121,8.14916637 21.2085633,7.28735871 C22.5827171,6.02771773 24.5254863,5.42158955 26.372499,5.67233313 C27.7989734,5.84706389 29.1543707,6.524269 30.162281,7.54896127 C33.9599603,11.3515765 37.7625756,15.1512302 41.5592677,18.9558198 C41.8504857,19.2430891 42.1940241,19.4790249 42.5750754,19.6290762 C43.7784471,20.1414224 45.2759984,19.7702429 46.1052291,18.7603583 C47.1072163,17.6329994 47.0795752,15.7682174 46.0381009,14.6744225 C42.3499985,10.991256 38.6697935,7.29920487 34.9807039,3.61702551 C32.7654732,1.42943585 29.7219989,0.127346149 26.614358,0 Z" id="Shape" fill-opacity="0" fill="#000000"></path>
                <path d="M46.4981265,4.16491011 C47.5504598,3.89442294 48.7350752,4.21624344 49.4794085,5.01487161 C50.5732033,6.1590126 51.820011,7.1629741 52.7765878,8.43347406 C54.2652545,10.3732817 55.153716,12.7553457 55.3323954,15.1917046 C55.4627031,16.2400892 55.3264724,17.2963712 55.1665493,18.3329096 C54.5426519,21.9746146 52.2188315,25.271794 49.0055623,27.0921529 C46.8594342,28.3320503 44.3431138,28.8838836 41.874178,28.7427169 C41.9551267,30.2116399 41.8307421,31.697345 41.4279729,33.1159219 C40.6234216,36.0498192 38.6994089,38.6480755 36.1514987,40.3025883 C34.2304475,41.5622293 31.9579604,42.259178 29.6647425,42.3499985 L28.8680887,42.3499985 C25.7476145,42.2512805 22.6814351,40.9689344 20.4415249,38.788255 C16.7346661,35.0932423 13.0465636,31.3794732 9.33773043,27.6874221 C8.64176892,26.9519734 8.36832021,25.8601529 8.60326892,24.8788965 C8.86684583,23.7090889 9.8727817,22.7465889 11.0554227,22.5412556 C12.0426021,22.3438197 13.1087559,22.6853838 13.8165636,23.3971402 C17.6468199,27.2333195 21.4800377,31.0665373 25.3122683,34.9007423 C26.8404221,36.4150756 29.1593066,37.0597038 31.2511399,36.5671012 C33.0478065,36.1722295 34.6391398,34.9599731 35.5068705,33.3390244 C36.2334346,32.0063322 36.4624602,30.4140117 36.1495243,28.9292938 C35.867191,27.5018323 35.0547423,26.2194862 33.9668706,25.2658709 C30.2313835,21.5619736 26.5334093,17.8205635 22.801871,14.1127174 C22.185871,13.4641405 21.8907043,12.531256 22.0002813,11.645756 C22.1147941,10.6368586 22.7574479,9.70792273 23.6646658,9.25184582 C24.557076,8.78490994 25.6666657,8.81353814 26.5531529,9.27948685 C27.0506913,9.51147402 27.4159477,9.9300381 27.7920631,10.3150381 C31.4890501,14.0238713 35.2018321,17.7159224 38.8889473,21.4336403 C40.2976524,22.7574479 42.3282805,23.3764094 44.2364984,23.0763069 C45.8189471,22.8472812 47.2997162,22.0012684 48.3017034,20.7564351 C49.2276777,19.6152557 49.7568059,18.1502814 49.7380495,16.6783968 C49.7587803,14.9745251 49.0489982,13.2805252 47.8347675,12.0870252 C46.9058316,11.1719099 45.9828189,10.2518586 45.0489471,9.34167915 C44.3144856,8.62301251 44.00846,7.5183587 44.2266266,6.5193331 C44.459601,5.38802545 45.3757035,4.43737163 46.4981265,4.16491011 Z" id="Shape" fill="#FFFFFF"></path>
                <path d="M109.831611,6.56869207 C110.582855,5.94084594 111.765496,5.91912799 112.538457,6.5193331 C113.106086,6.95862795 113.405201,7.68124331 113.40915,8.38905098 C113.415073,10.4305381 113.406188,12.4730124 113.413098,14.5144995 C115.420034,12.8116149 118.47338,12.5085508 120.771534,13.7908969 C122.417162,14.7020636 123.536624,16.3506533 124.124983,18.1048711 C124.679778,19.7909736 124.870303,21.6152813 124.562303,23.3694992 C124.227649,25.2411914 123.328329,27.0447683 121.89988,28.3202041 C120.575085,29.5156784 118.754726,30.151422 116.973855,29.9934733 C115.591804,29.8651399 114.196919,29.2096528 113.423957,28.0210887 C113.263047,28.6005631 112.984663,29.199781 112.447637,29.51864 C111.614458,30.014204 110.445637,29.9441143 109.730919,29.265922 C109.218573,28.7752938 108.999419,28.0457682 109.014227,27.3488195 C109.016201,21.0604864 109.01324,14.7731405 109.015214,8.48480739 C109.014227,7.77403818 109.274842,7.03266641 109.831611,6.56869207 Z M116.130804,17.1265763 C116.932393,16.9360507 117.820855,17.0653712 118.503983,17.5382301 C119.179214,17.9962814 119.641214,18.7100121 119.924534,19.4642172 C120.470444,20.9183326 120.42306,22.5945633 119.746842,23.9983325 C119.440816,24.6321017 118.979803,25.2086145 118.370714,25.5728837 C117.347009,26.1859221 115.952124,26.097076 115.018252,25.3537299 C114.254175,24.7505632 113.815868,23.8275504 113.595727,22.8976274 C113.264034,21.4869479 113.379534,19.9262172 114.112022,18.6557173 C114.540457,17.900525 115.272945,17.3072301 116.130804,17.1265763 Z" id="Combined-Shape" fill="#FFFFFF"></path>
                <path d="M137.351213,6.16789721 C138.112328,5.9428203 139.002764,6.15999978 139.540777,6.75428181 C139.968226,7.21825615 140.164674,7.85992279 140.159739,8.48480739 C140.160726,14.8037431 140.161713,21.1226787 140.159739,27.4426016 C140.165662,28.1128964 139.932687,28.8058964 139.439098,29.2738195 C138.780649,29.8957425 137.72338,30.0092681 136.930675,29.5877425 C136.150803,29.1899092 135.750995,28.2876272 135.764816,27.4406272 C135.763828,21.1236659 135.763828,14.8057174 135.764816,8.4887561 C135.731252,7.48775614 136.335405,6.41962797 137.351213,6.16789721 Z" id="Shape" fill="#FFFFFF"></path>
                <path d="M129.436995,6.63483309 C130.805226,6.2982049 132.288957,7.39693563 132.415316,8.78984584 C132.561418,10.1235253 131.466636,11.4749739 130.110252,11.5272945 C128.716354,11.6467432 127.43697,10.3564996 127.470534,8.98037147 C127.473495,7.86683305 128.373803,6.87866642 129.436995,6.63483309 Z" id="Shape" fill="#FFFFFF"></path>
                <path d="M70.7314077,13.1028329 C72.3039846,12.7997688 74.0137794,13.1650252 75.2793434,14.1620764 C75.6880357,14.4631661 76.0246639,14.8452046 76.3672152,15.2173712 C77.4906254,13.9804354 79.0760356,13.1413329 80.750292,13.0090508 C82.3060868,12.9488329 83.9507277,13.3209995 85.1619969,14.346679 C86.4473046,15.4118456 87.0208558,17.1206532 87.0307276,18.7504865 C87.0346764,21.6152813 87.0297405,24.480076 87.0336892,27.3438836 C87.0475097,28.01714 86.8461251,28.7170502 86.3712918,29.21064 C85.7809584,29.8197297 84.8184585,29.9964348 84.034638,29.6943579 C83.3929714,29.4633579 82.9151765,28.8838836 82.7394586,28.2333323 C82.5479457,27.5571144 82.6525868,26.8493067 82.6160611,26.1582811 C82.6130996,23.9548966 82.6288945,21.7524992 82.6121124,19.5501019 C82.6071765,18.7692429 82.3633432,17.9617301 81.8154586,17.389166 C80.844074,16.3703968 78.9565869,16.4533199 78.1036639,17.5846276 C77.6288305,18.1927301 77.4580485,18.9834609 77.455087,19.7416147 C77.455087,22.3082812 77.4570613,24.875935 77.455087,27.4426016 C77.4600229,28.1523836 77.1944716,28.891781 76.6396767,29.3547682 C75.8400614,30.0221015 74.5478435,29.9993964 73.7887025,29.2787554 C73.2230486,28.7693708 73.0414076,27.9796272 73.0404204,27.2451657 C73.0335102,24.6804735 73.0414076,22.1147941 73.0364717,19.5491147 C73.0344974,18.7682557 72.7867153,17.9637045 72.2427794,17.3901532 C71.2022923,16.3022815 69.0946642,16.4503584 68.3286129,17.7869994 C67.9831001,18.3743711 67.8863565,19.0693455 67.8804335,19.7406275 C67.8804335,22.3092684 67.8824078,24.8769222 67.8804335,27.4455631 C67.883395,28.1770631 67.6010617,28.9450887 67.0077668,29.3991912 C66.2032156,30.0240758 64.9504848,29.9806399 64.2101003,29.2757938 C63.6809721,28.7851656 63.4756387,28.0428067 63.4479977,27.3438836 C63.4479977,23.4613068 63.4489849,19.5787301 63.4479977,15.6961533 C63.4726772,15.0643584 63.6276644,14.3999867 64.0531387,13.9142944 C64.7885874,13.0218841 66.2900874,12.9340252 67.1430104,13.7000764 C67.4658181,13.9873456 67.6129078,14.4059097 67.7126129,14.8136149 C68.516177,13.9577303 69.5714719,13.3229739 70.7314077,13.1028329 Z" id="Shape" fill="#FFFFFF"></path>
                <path d="M96.7870222,13.1008585 C98.6113298,12.7948329 100.547189,13.1818072 102.098048,14.1956405 C104.551189,15.7800635 105.969765,18.7248198 105.910535,21.6172556 C105.944099,24.5945889 104.417919,27.6607682 101.745625,29.0941528 C100.031881,30.0329605 97.9607785,30.245204 96.0723042,29.7812297 C94.4029838,29.3745118 92.8975351,28.3596913 91.8758044,26.9815888 C89.7405352,24.1306145 89.5658045,19.9972942 91.3654326,16.9390122 C92.4997018,14.9537943 94.5095992,13.4532816 96.7870222,13.1008585 Z M97.4523811,17.0939994 C98.3674965,16.9251917 99.3684964,17.1670507 100.063471,17.7988455 C100.743637,18.4000378 101.146407,19.2559224 101.347791,20.128589 C101.639009,21.3783582 101.543253,22.7268453 101.020048,23.9035632 C100.691317,24.6399991 100.144419,25.3053581 99.4129195,25.6666657 C98.3398554,26.1859221 96.9578042,26.0595632 96.0426888,25.2767299 C95.3269837,24.6775119 94.9015094,23.8008966 94.6951889,22.9035505 C94.3891633,21.5599992 94.5323043,20.0979865 95.163112,18.8659865 C95.6152401,17.9785122 96.4474324,17.2499737 97.4523811,17.0939994 Z" id="Combined-Shape" fill="#FFFFFF"></path>
                <path d="M149.660354,13.0850636 C151.53402,12.7938457 153.509366,13.251897 155.065161,14.33582 C157.041494,15.7040507 158.412687,17.9419865 158.676264,20.3368839 C158.72661,20.9874351 158.77202,21.7031402 158.416635,22.2836018 C158.11752,22.7752171 157.510405,22.9637684 156.964494,22.972653 C153.772943,22.9874607 150.580405,22.9578453 147.388854,22.9874607 C147.503366,23.7288325 147.809392,24.4573709 148.353328,24.9864991 C149.198354,25.8453452 150.450097,26.1809862 151.628789,26.146435 C152.64361,26.1503837 153.602161,25.739717 154.476802,25.2589606 C155.059238,24.9588581 155.613046,24.5629991 156.261623,24.4178837 C157.532123,24.1789863 158.69502,25.6508709 158.234007,26.8404221 C157.936866,27.549217 157.313956,28.0526785 156.68611,28.4603836 C155.512353,29.1928707 154.173738,29.6371015 152.815379,29.8720502 C150.876559,30.2057169 148.808418,29.9747169 147.06111,29.0418323 C145.68202,28.3103323 144.549726,27.1365759 143.848828,25.7426786 C142.232815,22.5313838 142.666187,18.351666 145.060097,15.6359353 C146.229905,14.2795508 147.880469,13.3338329 149.660354,13.0850636 Z M148.630725,17.4355635 C149.800533,16.4513456 151.647546,16.4237045 152.868687,17.3299353 C153.712725,17.9656788 154.170776,18.995307 154.297135,20.0249352 C151.963443,20.0387557 149.629751,20.0278967 147.296059,20.0259224 C147.420443,19.044666 147.856777,18.0752558 148.630725,17.4355635 Z" id="Combined-Shape" fill="#FFFFFF"></path>
                <path d="M129.346175,13.2637431 C130.026341,13.0821021 130.803252,13.2153713 131.344226,13.6803328 C131.896059,14.1482559 132.148777,14.8886405 132.14779,15.5984225 C132.152726,19.4158455 132.145816,23.2342556 132.150752,27.0526657 C132.176418,27.7051913 132.089547,28.3942426 131.704547,28.94114 C131.200098,29.7042297 130.166521,30.0112425 129.307675,29.7456912 C128.646265,29.5679989 128.120098,29.0270246 127.901931,28.385358 C127.670931,27.7367811 127.761752,27.0388452 127.754842,26.3646016 C127.748918,22.7080889 127.746944,19.0525634 127.75879,15.3960507 C127.769649,14.4493456 128.401444,13.4957303 129.346175,13.2637431 Z" id="Shape" fill="#FFFFFF"></path>
                <path d="M160.430481,13.8402559 C160.814494,13.0505124 162.052417,12.9577175 162.601289,13.6161662 C162.860917,13.9063969 162.999122,14.2785636 163.116597,14.6448072 C163.826379,16.9360507 164.542084,19.2253198 165.252853,21.5165633 C165.701032,22.9084864 166.094917,24.3181786 166.576661,25.6982555 C167.617148,22.5373069 168.595443,19.3556275 169.610263,16.1857943 C169.878776,15.4108584 170.056468,14.5974226 170.420737,13.8590123 C170.819558,12.9843713 172.248994,12.9409354 172.710994,13.7760892 C173.034789,14.33582 173.172007,14.9774866 173.380301,15.584602 C174.460276,18.9558198 175.504712,22.339871 176.605417,25.7041786 C177.716981,22.2707684 178.756481,18.8126788 179.841391,15.3703841 C180.033891,14.7958456 180.147417,14.1739226 180.521558,13.6803328 C181.048711,12.9527816 182.375481,13.0238585 182.761468,13.8599995 C183.030968,14.4384867 182.764429,15.0742302 182.59266,15.6408712 C181.126699,19.9044993 179.663699,24.1681273 178.197737,28.4307682 C178.016096,28.9204092 177.789045,29.4653323 177.290519,29.7052169 C176.748558,29.9441143 176.02693,29.8829092 175.621199,29.419922 C175.23225,28.9756913 175.101942,28.3823964 174.921289,27.8364862 C173.813673,24.3695119 172.730737,20.8946403 171.607327,17.4326019 C171.299327,18.1088199 171.140391,18.8422942 170.894584,19.5422044 C169.95775,22.4948582 169.01993,25.4475119 168.082109,28.4001656 C167.925148,28.874999 167.713891,29.381422 167.271635,29.6558579 C166.807661,29.9154861 166.191661,29.9066015 165.743481,29.6193323 C165.313071,29.3182425 165.117609,28.8049092 164.949789,28.3290887 C163.479879,24.0476914 162.00602,19.7682685 160.538084,15.4858841 C160.378161,14.9616918 160.15802,14.3654354 160.430481,13.8402559 Z" id="Shape" fill="#FFFFFF"></path>
                <path d="M190.821788,13.3585123 C192.111044,13.0771662 193.516788,13.10382 194.72016,13.6911918 C195.562224,14.088038 196.254237,14.7297046 196.888006,15.3990123 C196.934403,14.8165764 196.769544,14.1452944 197.16639,13.6487431 C197.627403,13.0455765 198.630377,13.0406406 199.112121,13.6211021 C199.509954,14.0860636 199.415185,14.7415508 199.407288,15.3072046 C199.406301,17.6093071 199.419134,19.9114095 199.398403,22.213512 C199.39248,24.3833325 199.456647,26.5521657 199.388531,28.720999 C199.362865,29.4673066 198.530672,30.0033451 197.832736,29.794063 C197.341121,29.6795502 196.949211,29.2343323 196.912685,28.7288964 C196.875172,28.2688708 196.910711,27.8068708 196.887019,27.345858 C196.295698,28.1474477 195.576044,28.8799349 194.670801,29.3182425 C193.303557,30.0013707 191.679647,29.9539861 190.248237,29.5067938 C188.75957,29.0368964 187.488083,27.9885118 186.663788,26.6726016 C185.604545,25.0062427 185.170186,22.9933838 185.251134,21.0338326 C185.338993,19.1641147 185.905634,17.2805763 187.057673,15.7869738 C187.980686,14.5737302 189.328185,13.6823072 190.821788,13.3585123 Z M191.661878,15.573743 C192.716185,15.41382 193.859339,15.5806533 194.734967,16.2233071 C195.842583,17.0219353 196.423044,18.3496916 196.688595,19.6527685 C197.033121,21.454371 196.911698,23.3892427 196.130839,25.0654735 C195.718198,25.9341914 195.056788,26.7140631 194.174249,27.125717 C192.630301,27.8414221 190.601647,27.5521785 189.456519,26.2451529 C188.302506,24.9341786 187.949096,23.1207299 187.934288,21.4208069 C187.978711,19.7208839 188.368647,17.8965763 189.588801,16.6349609 C190.143596,16.0722687 190.881019,15.6971405 191.661878,15.573743 Z" id="Combined-Shape" fill="#FFFFFF"></path>
                <path d="M202.926582,14.3121277 C202.925595,13.6753969 203.534685,13.1788457 204.147723,13.1857559 C204.748916,13.1610764 205.310621,13.587538 205.488313,14.1551662 C206.757826,17.9044737 207.980941,21.6695761 209.271185,25.4119734 C210.306736,22.3072941 211.316621,19.1937301 212.344274,16.0860892 C212.60489,15.3545892 212.791467,14.594461 213.101441,13.8807303 C213.433133,13.1620636 214.458813,12.9626534 215.056056,13.4690764 C215.42921,13.7405508 215.541749,14.2361149 215.444018,14.671461 C215.285082,15.4128328 214.995838,16.1186661 214.756941,16.8363455 C212.617723,22.9519222 210.478505,29.0684861 208.340275,35.18505 C208.193185,35.6184218 207.902954,36.0399474 207.448851,36.18605 C206.796326,36.433832 205.941428,36.0517936 205.798287,35.3429987 C205.709441,34.8178193 205.939454,34.3133706 206.101352,33.8266911 C206.662069,32.3202552 207.225749,30.8148066 207.797326,29.3123195 C207.845698,29.1820118 207.888146,29.0368964 207.828916,28.9016528 C206.347159,24.6271658 204.869352,20.3526788 203.388582,16.0781917 C203.204967,15.4987174 202.951262,14.9261533 202.926582,14.3121277 Z" id="Shape" fill="#FFFFFF"></path>
                <path d="M222.911043,13.3012559 C224.595171,12.9962175 226.360248,13.3387688 227.889389,14.0801405 C228.471825,14.3782687 229.04044,14.7691918 229.385953,15.3397815 C229.641633,15.7741405 229.68112,16.3901404 229.329684,16.7850122 C228.989107,17.1759353 228.396799,17.2420763 227.926902,17.0890635 C227.413569,16.8778071 227.019684,16.4720763 226.554723,16.1828328 C225.887389,15.7405764 225.0858,15.5233969 224.288159,15.5204353 C223.462877,15.5006917 222.579351,15.6596276 221.933736,16.2075122 C221.406582,16.6487815 221.195325,17.421743 221.427313,18.0683455 C221.706684,18.6882942 222.328607,19.0476275 222.906107,19.3487173 C224.767928,20.2628454 226.868646,20.7199095 228.53994,21.9983069 C229.329684,22.587653 229.909158,23.4790761 230.012812,24.4711914 L230.012812,25.316217 C229.88053,26.5215631 229.320799,27.6972939 228.360274,28.4584092 C226.874569,29.6627682 224.848877,29.9914989 222.991005,29.7753066 C221.521095,29.6084733 220.034402,29.1573323 218.864595,28.2244477 C218.487492,27.9085503 218.133095,27.5225631 217.999825,27.0388452 C217.831018,26.4524606 218.1558,25.7318196 218.761928,25.5600504 C219.131133,25.4396145 219.523043,25.5788068 219.845851,25.7653837 C220.399659,26.0901657 220.89621,26.5067555 221.463838,26.8117939 C222.547761,27.422858 223.846889,27.6400375 225.070992,27.4189093 C225.832107,27.268858 226.592235,26.8927426 227.029556,26.229358 C227.349402,25.7564991 227.411594,25.1108837 227.155915,24.5965632 C226.890364,24.0555889 226.387889,23.6834222 225.885415,23.3773966 C224.069005,22.3329607 221.963351,21.8512172 220.24862,20.61823 C219.488492,20.0802172 218.844851,19.3003455 218.681966,18.362525 C218.508223,17.3171019 218.772787,16.2035635 219.392736,15.3447174 C220.212095,14.2064995 221.555646,13.5450893 222.911043,13.3012559 Z" id="Shape" fill="#FFFFFF"></path>
            </g>
        </g>
    </g>
</svg>