<?xml version="1.0" encoding="utf-8"?>
<!-- Generator: Adobe Illustrator 16.0.0, SVG Export Plug-In . SVG Version: 6.00 Build 0)  -->
<!DOCTYPE svg PUBLIC "-//W3C//DTD SVG 1.1//EN" "http://www.w3.org/Graphics/SVG/1.1/DTD/svg11.dtd">
<svg version="1.1" id="Layer_1" xmlns="http://www.w3.org/2000/svg" xmlns:xlink="http://www.w3.org/1999/xlink" x="0px" y="0px"
	 width="10.008px" height="19.514px" viewBox="0 0 10.008 19.514" style="enable-background:new 0 0 10.008 19.514;"
	 xml:space="preserve">
<path style="fill:#737474;" d="M5.066,16.616c-0.728,0-1.32-0.592-1.32-1.319c0-0.729,0.593-1.32,1.32-1.32
	c0.729,0,1.32,0.592,1.32,1.32C6.386,16.024,5.794,16.616,5.066,16.616 M5.066,14.733c-0.311,0-0.563,0.253-0.563,0.563
	s0.252,0.563,0.563,0.563c0.311,0,0.564-0.253,0.564-0.563S5.377,14.733,5.066,14.733"/>
<path style="fill:#737474;" d="M9.578,2.833c-0.245,0-0.432,0.198-0.432,0.442v12.449c0,1.19-0.999,2.168-2.188,2.168H3.624v-0.757
	l-2.059,1.188l2.059,1.189v-0.759h3.334c1.678,0,3.051-1.354,3.051-3.03V3.275C10.008,3.031,9.821,2.833,9.578,2.833"/>
<path style="fill:#6A6A6A;" d="M8.444,1.189L6.385,0v0.809H3.074C1.396,0.809,0,2.112,0,3.789v12.449
	c0,0.244,0.188,0.442,0.431,0.442c0.244,0,0.432-0.198,0.432-0.442V3.789c0-1.19,1.021-2.118,2.211-2.118h3.312v0.707L8.444,1.189z"
	/>
</svg>
