<svg id="Layer_1" data-name="Layer 1" xmlns="http://www.w3.org/2000/svg" viewBox="0 0 594.41 85"><defs><style>.cls-1{fill:#010101;}.cls-2{fill:#f1583b;}</style></defs><title>logo</title><g id="Layer_1-2" data-name="Layer 1"><path class="cls-1" d="M6.34,16.2H12.9l2.26,9.61H31.22v8.46H16.82V68.34c0,5.55,2.4,8.29,7.18,8.29h7.22v8.5h-10q-14.92,0-14.92-16Z" transform="translate(-6.34 -1)"/><path class="cls-1" d="M69,25.81q25.29,0,25.32,25a59.78,59.78,0,0,1-.52,7.63H52.14c0,12.15,7.08,18.18,21.23,18.18a65.79,65.79,0,0,0,18-2.25v8.46A70.32,70.32,0,0,1,72.26,85.1q-30.54,0-30.56-30.36C41.66,35.49,50.79,25.81,69,25.81Zm-16.83,24H84.23Q83.87,34.16,69,34.17,53.15,34.17,52.14,49.78Z" transform="translate(-6.34 -1)"/><path class="cls-1" d="M153,83.43a69.14,69.14,0,0,1-15.82,1.7q-31.65,0-31.65-30.81,0-28.51,31.65-28.51A69.14,69.14,0,0,1,153,27.51V36a72.56,72.56,0,0,0-16.38-1.7q-20.61,0-20.61,20,0,22.33,20.61,22.31A71.74,71.74,0,0,0,153,74.93Z" transform="translate(-6.34 -1)"/><path class="cls-1" d="M166.25,85.13V4.33h10.44V32.26c5-4.3,11.21-6.45,18.49-6.45q22.23,0,22.21,22.1V85.13H206.94V47.73q0-13.21-13.14-13.22-9,0-17.07,7.53V85.13Z" transform="translate(-6.34 -1)"/><path class="cls-1" d="M259.54,85.86a27.15,27.15,0,0,1-20-8.29,27,27,0,0,1-8.29-19.95,27.3,27.3,0,0,1,8.29-20,27,27,0,0,1,20-8.29q13.38,0,22.48,10.79V30h5.83V85.13H282V75.07C276.09,82.29,268.6,85.86,259.54,85.86Zm0-50.79a22.52,22.52,0,0,0-22.45,22.52,22.47,22.47,0,1,0,44.93,0,22.5,22.5,0,0,0-22.48-22.52Z" transform="translate(-6.34 -1)"/><path class="cls-1" d="M348.88,85.13h-5.83V51.72A16.47,16.47,0,0,0,326.5,35.17,16.24,16.24,0,0,0,314.74,40,16.07,16.07,0,0,0,310,51.72V85.13h-5.83V3.88H310V36.42q6.3-6.81,16.55-7.08a22.4,22.4,0,0,1,22.38,22.38V85.13Z" transform="translate(-6.34 -1)"/><path class="cls-1" d="M389.47,29.31a28.38,28.38,0,0,1,28.31,28.31v.45H367.27a20.6,20.6,0,0,0,1.87,8.47,22.55,22.55,0,0,0,4.79,6.94,22,22,0,0,0,7,4.64,21.15,21.15,0,0,0,8.54,1.74,21.7,21.7,0,0,0,11.69-3.33,22.32,22.32,0,0,0,8-8.71l5.55,2.43a27.63,27.63,0,0,1-10.24,11.24,27.3,27.3,0,0,1-15,4.34,27.64,27.64,0,0,1-11-2.22,28.31,28.31,0,0,1-17.32-26.06,28.28,28.28,0,0,1,8.26-20,28.4,28.4,0,0,1,9.06-6A28.85,28.85,0,0,1,389.47,29.31ZM411,52a22.25,22.25,0,0,0-21.54-16.68A21.39,21.39,0,0,0,375.8,40.1,22,22,0,0,0,368,52Z" transform="translate(-6.34 -1)"/><path class="cls-1" d="M455.49,85.86a27.17,27.17,0,0,1-19.95-8.29,27,27,0,0,1-8.29-19.95,27.3,27.3,0,0,1,8.29-20,27.05,27.05,0,0,1,19.95-8.29q13.38,0,22.48,10.79V30h5.83V85.13H478V75.07C472,82.29,464.55,85.86,455.49,85.86Zm0-50.79A22.52,22.52,0,0,0,433,57.59a22.47,22.47,0,1,0,44.93,0,22.5,22.5,0,0,0-22.48-22.52Z" transform="translate(-6.34 -1)"/><path class="cls-1" d="M524.19,86a27.06,27.06,0,0,1-20-8.36,27,27,0,0,1-8.29-20,27.15,27.15,0,0,1,8.29-19.95,27.06,27.06,0,0,1,20-8.36q12.75,0,22.44,10.86V1h5.83v84.1h-5.83v-10C540.49,82.36,533,86,524.19,86Zm0-50.76A22.4,22.4,0,0,0,501.7,57.69a22.47,22.47,0,1,0,44.93,0,22.38,22.38,0,0,0-22.44-22.45Z" transform="translate(-6.34 -1)"/><rect class="cls-2" x="551.25" width="43.16" height="5.62"/><rect class="cls-2" x="551.25" y="12.14" width="33.13" height="3.82"/><rect class="cls-2" x="551.25" y="24.39" width="26.44" height="2.08"/></g></svg>