<?xml version="1.0" encoding="UTF-8"?>
<svg width="1714px" height="246px" viewBox="0 0 1714 246" version="1.1" xmlns="http://www.w3.org/2000/svg" xmlns:xlink="http://www.w3.org/1999/xlink">
    <!-- Generator: Sketch 51.3 (57544) - http://www.bohemiancoding.com/sketch -->
    <title>Logo</title>
    <desc>Created with Sketch.</desc>
    <defs></defs>
    <g id="Page-1" stroke="none" stroke-width="1" fill="none" fill-rule="evenodd">
        <g id="Logo" fill="#FFFFFF" fill-rule="nonzero">
            <g id="Layer_1">
                <g id="Group" transform="translate(0.000000, 10.000000)">
                    <path d="M0.2,34.3 L19.1,34.3 L25.6,62 L71.9,62 L71.9,86.4 L30.4,86.4 L30.4,184.6 C30.4,200.6 37.3,208.5 51.1,208.5 L71.9,208.5 L71.9,233 L43.2,233 C14.5,233 0.2,217.6 0.2,186.9 L0.2,34.3 Z" id="Shape"></path>
                    <path d="M180.7,62 C229.3,62 253.7,86.1 253.7,134.1 C253.7,140.9 253.2,148.3 252.2,156.1 L132.2,156.1 C132.2,191.1 152.6,208.5 193.4,208.5 C212.8,208.5 230.1,206.3 245.2,202 L245.2,226.4 C230.1,230.7 211.8,232.9 190.2,232.9 C131.5,232.9 102.1,203.7 102.1,145.4 C102,89.9 128.3,62 180.7,62 Z M132.2,131.1 L224.7,131.1 C224,101.1 209.4,86.1 180.7,86.1 C150.3,86.1 134.1,101.1 132.2,131.1 Z" id="Shape"></path>
                    <path d="M422.9,228.1 C408.8,231.4 393.6,233 377.3,233 C316.5,233 286.1,203.4 286.1,144.2 C286.1,89.4 316.5,62 377.3,62 C393.6,62 408.8,63.6 422.9,66.9 L422.9,91.3 C408.8,88 393,86.4 375.7,86.4 C336.1,86.4 316.3,105.7 316.3,144.2 C316.3,187.1 336.1,208.5 375.7,208.5 C393.1,208.5 408.8,206.9 422.9,203.6 L422.9,228.1 Z" id="Shape"></path>
                    <path d="M461.1,233 L461.1,0.1 L491.2,0.1 L491.2,80.6 C505.7,68.2 523.5,62 544.5,62 C587.2,62 608.5,83.2 608.5,125.7 L608.5,233 L578.4,233 L578.4,125.2 C578.4,99.8 565.8,87.1 540.5,87.1 C523.2,87.1 506.8,94.3 491.3,108.8 L491.3,233 L461.1,233 Z" id="Shape"></path>
                </g>
                <path d="M730,245.1 C707.5,245.1 688.4,237.1 672.5,221.2 C656.5,205.3 648.6,186.2 648.6,163.7 C648.6,141.1 656.6,121.9 672.5,106 C688.4,90 707.5,82.1 730,82.1 C755.7,82.1 777.3,92.5 794.8,113.2 L794.8,84.2 L811.6,84.2 L811.6,243 L794.8,243 L794.8,214 C777.7,234.8 756.1,245.1 730,245.1 Z M730,98.7 C712.2,98.7 696.9,105.1 684.2,117.8 C671.6,130.5 665.3,145.8 665.3,163.6 C665.3,181.4 671.6,196.7 684.2,209.4 C696.9,222 712.2,228.3 730,228.3 C747.8,228.3 763.1,222 775.9,209.4 C788.5,196.7 794.8,181.4 794.8,163.6 C794.8,145.8 788.5,130.5 775.9,117.8 C763.1,105.1 747.8,98.7 730,98.7 Z" id="Shape"></path>
                <g id="Group" transform="translate(858.000000, 8.000000)">
                    <path d="M129.5,235 L112.7,235 L112.7,138.7 C112.7,125.6 108.1,114.3 98.9,105 C89.5,95.7 78.2,91 65,91 C51.9,91 40.6,95.7 31.1,105 C21.9,114.3 17.3,125.6 17.3,138.7 L17.3,235 L0.5,235 L0.5,0.8 L17.3,0.8 L17.3,94.6 C29.4,81.5 45.3,74.7 65,74.2 C82.8,74.2 98,80.5 110.6,93.1 C123.2,105.7 129.5,120.9 129.5,138.7 L129.5,235 Z" id="Shape"></path>
                    <path d="M246.5,74.1 C257.6,74.1 268.2,76.3 278.3,80.6 C288.1,84.7 296.7,90.5 304.2,98 C311.7,105.5 317.5,114.1 321.6,123.9 C325.9,134 328.1,144.6 328.1,155.7 L328.1,157 L182.5,157 C182.6,165.6 184.4,173.7 187.9,181.4 C191.3,189 195.9,195.7 201.7,201.4 C207.6,207.2 214.3,211.6 221.9,214.8 C229.7,218.2 237.9,219.8 246.5,219.8 C258.7,219.8 269.9,216.6 280.2,210.2 C290.2,203.9 297.9,195.5 303.3,185.1 L319.3,192.1 C312.5,205.7 302.6,216.5 289.8,224.5 C276.7,232.9 262.2,237 246.5,237 C235.5,237 225,234.9 214.9,230.6 C205.1,226.5 196.4,220.7 188.8,213.2 C181.3,205.6 175.5,196.9 171.4,187.1 C167.2,177 165,166.5 165,155.5 C165,144.4 167.1,133.8 171.4,123.7 C175.5,113.9 181.3,105.3 188.8,97.8 C196.4,90.3 205.1,84.5 214.9,80.4 C225,76.3 235.6,74.1 246.5,74.1 Z M308.6,139.6 C305,125.7 297.5,114.2 286.1,105.2 C274.5,96.1 261.3,91.5 246.5,91.5 C231.7,91.5 218.6,96.1 207.1,105.2 C195.7,114.2 188.2,125.7 184.5,139.6 L308.6,139.6 Z" id="Shape"></path>
                    <path d="M436.8,237.1 C414.3,237.1 395.2,229.1 379.3,213.2 C363.3,197.3 355.4,178.2 355.4,155.7 C355.4,133.1 363.4,113.9 379.3,98 C395.2,82 414.3,74.1 436.8,74.1 C462.5,74.1 484.1,84.5 501.6,105.2 L501.6,76.2 L518.4,76.2 L518.4,235 L501.6,235 L501.6,206 C484.5,226.8 462.9,237.1 436.8,237.1 Z M436.8,90.7 C419,90.7 403.7,97.1 391,109.8 C378.4,122.5 372.1,137.8 372.1,155.6 C372.1,173.4 378.4,188.7 391,201.4 C403.7,214 419,220.3 436.8,220.3 C454.6,220.3 469.9,214 482.7,201.4 C495.3,188.7 501.6,173.4 501.6,155.6 C501.6,137.8 495.3,122.5 482.7,109.8 C469.9,97.1 454.6,90.7 436.8,90.7 Z" id="Shape"></path>
                </g>
                <path d="M1492.8,245.5 C1470.2,245.5 1451,237.5 1435.1,221.4 C1419.1,205.6 1411.2,186.4 1411.2,163.9 C1411.2,141.4 1419.2,122.3 1435.1,106.4 C1451,90.3 1470.2,82.3 1492.8,82.3 C1517.3,82.3 1538.9,92.7 1557.5,113.6 L1557.5,0.6 L1574.3,0.6 L1574.3,243 L1557.5,243 L1557.5,214.2 C1539.8,235 1518.3,245.5 1492.8,245.5 Z M1492.8,99.2 C1475,99.2 1459.7,105.5 1446.9,118.1 C1434.3,130.8 1428,146.1 1428,163.9 C1428,181.7 1434.3,197 1446.9,209.7 C1459.7,222.3 1475,228.6 1492.8,228.6 C1510.6,228.6 1525.9,222.3 1538.6,209.7 C1551.2,197 1557.5,181.7 1557.5,163.9 C1557.5,146.1 1551.2,130.8 1538.6,118.1 C1525.8,105.5 1510.6,99.2 1492.8,99.2 Z" id="Shape"></path>
                <rect id="Rectangle-path" x="1589.1" y="0.5" width="124.4" height="16.2"></rect>
                <rect id="Rectangle-path" x="1589.1" y="35.5" width="95.5" height="11"></rect>
                <rect id="Rectangle-path" x="1589.1" y="70.8" width="76.2" height="6"></rect>
            </g>
        </g>
    </g>
</svg>