<?xml version="1.0" encoding="utf-8"?>
<!-- Generator: Adobe Illustrator 16.0.0, SVG Export Plug-In . SVG Version: 6.00 Build 0)  -->
<!DOCTYPE svg PUBLIC "-//W3C//DTD SVG 1.1//EN" "http://www.w3.org/Graphics/SVG/1.1/DTD/svg11.dtd">
<svg version="1.1" id="Layer_1" xmlns="http://www.w3.org/2000/svg" xmlns:xlink="http://www.w3.org/1999/xlink" x="0px" y="0px"
	 width="102.34px" height="86.822px" viewBox="0 0 102.34 86.822" style="enable-background:new 0 0 102.34 86.822;"
	 xml:space="preserve">
<g>
	<defs>
		<rect id="SVGID_1_" y="0" width="102.34" height="86.822"/>
	</defs>
	<clipPath id="SVGID_2_">
		<use xlink:href="#SVGID_1_"  style="overflow:visible;"/>
	</clipPath>
	<path style="clip-path:url(#SVGID_2_);fill:#FFFFFF;" d="M101.34,43.906c0,1.371-1.112,2.484-2.485,2.484
		c-1.372,0-2.483-1.113-2.483-2.484c0-1.373,1.111-2.485,2.483-2.485C100.228,41.421,101.34,42.534,101.34,43.906"/>
	
		<circle style="clip-path:url(#SVGID_2_);fill:none;stroke:#B2C8CE;stroke-width:2;stroke-linejoin:round;stroke-miterlimit:10;" cx="98.855" cy="43.906" r="2.484"/>
	
		<line style="clip-path:url(#SVGID_2_);fill:none;stroke:#B2C8CE;stroke-width:2;stroke-linecap:round;stroke-linejoin:round;stroke-miterlimit:10;" x1="29" y1="68.822" x2="29" y2="62.822"/>
	
		<line style="clip-path:url(#SVGID_2_);fill:none;stroke:#B2C8CE;stroke-width:2;stroke-linecap:round;stroke-linejoin:round;stroke-miterlimit:10;" x1="26" y1="65.822" x2="32" y2="65.822"/>
	
		<line style="clip-path:url(#SVGID_2_);fill:none;stroke:#B2C8CE;stroke-width:2;stroke-linecap:round;stroke-linejoin:round;stroke-miterlimit:10;" x1="63" y1="13.822" x2="63" y2="7.822"/>
	
		<line style="clip-path:url(#SVGID_2_);fill:none;stroke:#B2C8CE;stroke-width:2;stroke-linecap:round;stroke-linejoin:round;stroke-miterlimit:10;" x1="60" y1="10.822" x2="66" y2="10.822"/>
	<path style="clip-path:url(#SVGID_2_);fill:none;stroke:#4A6970;stroke-width:2;stroke-linejoin:round;stroke-miterlimit:10;" d="
		M70.269,74.829l-53.248-55.88c-1.227-1.285-1.18-3.34,0.105-4.568l13.078-12.49c1.285-1.227,3.34-1.18,4.567,0.105l53.248,55.88
		l6.799,24.887L70.269,74.829z"/>
	
		<polyline style="clip-path:url(#SVGID_2_);fill:none;stroke:#4A6970;stroke-width:2;stroke-linejoin:round;stroke-miterlimit:10;" points="
		37.466,14.851 80.559,60.099 80.471,67.818 72.783,67.582 29.662,22.304 	"/>
	
		<line style="clip-path:url(#SVGID_2_);fill:none;stroke:#4A6970;stroke-width:2;stroke-linejoin:round;stroke-miterlimit:10;" x1="24.618" y1="26.902" x2="42.291" y2="10.022"/>
	
		<line style="clip-path:url(#SVGID_2_);fill:none;stroke:#4A6970;stroke-width:2;stroke-linejoin:round;stroke-miterlimit:10;" x1="70.269" y1="74.829" x2="72.782" y2="67.581"/>
	
		<line style="clip-path:url(#SVGID_2_);fill:none;stroke:#4A6970;stroke-width:2;stroke-linejoin:round;stroke-miterlimit:10;" x1="80.559" y1="60.099" x2="88.018" y2="57.876"/>
	
		<line style="clip-path:url(#SVGID_2_);fill:none;stroke:#1AACD2;stroke-width:2;stroke-linecap:round;stroke-linejoin:round;stroke-miterlimit:10;stroke-dasharray:12,12;" x1="1" y1="85.822" x2="84" y2="85.822"/>
</g>
</svg>
