<?xml version="1.0" encoding="utf-8"?>
<!-- Generator: Adobe Illustrator 16.0.0, SVG Export Plug-In . SVG Version: 6.00 Build 0)  -->
<!DOCTYPE svg PUBLIC "-//W3C//DTD SVG 1.1//EN" "http://www.w3.org/Graphics/SVG/1.1/DTD/svg11.dtd">
<svg version="1.1" id="Layer_1" xmlns="http://www.w3.org/2000/svg" xmlns:xlink="http://www.w3.org/1999/xlink" x="0px" y="0px"
	 width="102.691px" height="86.822px" viewBox="0 0 102.691 86.822" style="enable-background:new 0 0 102.691 86.822;"
	 xml:space="preserve">
<g>
	<defs>
		<rect id="SVGID_1_" y="0" width="102.691" height="86.822"/>
	</defs>
	<clipPath id="SVGID_2_">
		<use xlink:href="#SVGID_1_"  style="overflow:visible;"/>
	</clipPath>
	
		<circle style="clip-path:url(#SVGID_2_);fill:none;stroke:#B2C8CE;stroke-width:2;stroke-linecap:round;stroke-linejoin:round;stroke-miterlimit:10;" cx="99.547" cy="16.024" r="2.143"/>
	
		<circle style="clip-path:url(#SVGID_2_);fill:none;stroke:#1AACD2;stroke-width:2;stroke-linecap:round;stroke-linejoin:round;stroke-miterlimit:10;" cx="82.295" cy="77.269" r="2.143"/>
	
		<circle style="clip-path:url(#SVGID_2_);fill:none;stroke:#1AACD2;stroke-width:2;stroke-linecap:round;stroke-linejoin:round;stroke-miterlimit:10;" cx="52.383" cy="77.269" r="2.143"/>
	
		<line style="clip-path:url(#SVGID_2_);fill:none;stroke:#B2C8CE;stroke-width:2;stroke-linecap:round;stroke-linejoin:round;stroke-miterlimit:10;" x1="90" y1="60.822" x2="90" y2="54.822"/>
	
		<line style="clip-path:url(#SVGID_2_);fill:none;stroke:#B2C8CE;stroke-width:2;stroke-linecap:round;stroke-linejoin:round;stroke-miterlimit:10;" x1="87" y1="57.822" x2="93" y2="57.822"/>
	
		<line style="clip-path:url(#SVGID_2_);fill:none;stroke:#B2C8CE;stroke-width:2;stroke-linecap:round;stroke-linejoin:round;stroke-miterlimit:10;" x1="4" y1="36.822" x2="4" y2="30.822"/>
	
		<line style="clip-path:url(#SVGID_2_);fill:none;stroke:#B2C8CE;stroke-width:2;stroke-linecap:round;stroke-linejoin:round;stroke-miterlimit:10;" x1="1" y1="33.822" x2="7" y2="33.822"/>
	
		<path style="clip-path:url(#SVGID_2_);fill:none;stroke:#4A6970;stroke-width:2;stroke-linecap:round;stroke-linejoin:round;stroke-miterlimit:10;" d="
		M60.038,85.822H24.286c-2.496,0-4.538-2.042-4.538-4.539V5.539C19.748,3.042,21.79,1,24.286,1h56.193
		c2.496,0,4.538,2.042,4.538,4.539v17.098"/>
	
		<path style="clip-path:url(#SVGID_2_);fill:none;stroke:#4A6970;stroke-width:2;stroke-linecap:round;stroke-linejoin:round;stroke-miterlimit:10;" d="
		M94.195,85.822H70.614c-2.895,0-5.262-2.368-5.262-5.262V32.979c0-2.893,2.367-5.261,5.262-5.261h23.581
		c2.894,0,5.262,2.368,5.262,5.261v47.581C99.457,83.454,97.089,85.822,94.195,85.822z"/>
</g>
</svg>
