<?xml version="1.0" encoding="utf-8"?>
<!-- Generator: Adobe Illustrator 16.0.0, SVG Export Plug-In . SVG Version: 6.00 Build 0)  -->
<!DOCTYPE svg PUBLIC "-//W3C//DTD SVG 1.1//EN" "http://www.w3.org/Graphics/SVG/1.1/DTD/svg11.dtd">
<svg version="1.1" id="Layer_1" xmlns="http://www.w3.org/2000/svg" xmlns:xlink="http://www.w3.org/1999/xlink" x="0px" y="0px"
	 width="515.001px" height="113.08px" viewBox="0 0 515.001 113.08" style="enable-background:new 0 0 515.001 113.08;"
	 xml:space="preserve">
<path style="fill:#FFFFFF;" d="M29.357,96.293c-4.218,0-7.651-3.431-7.651-7.647c0-4.221,3.433-7.651,7.651-7.651
	c4.22,0,7.653,3.431,7.653,7.651C37.01,92.862,33.577,96.293,29.357,96.293 M29.357,85.378c-1.799,0-3.263,1.467-3.263,3.268
	c0,1.799,1.464,3.263,3.263,3.263c1.801,0,3.265-1.464,3.265-3.263C32.623,86.845,31.158,85.378,29.357,85.378"/>
<path style="fill:#FFFFFF;" d="M55.5,16.42c-1.414,0-2.5,1.146-2.5,2.561v72.141c0,6.898-5.785,12.562-12.681,12.562H21v-4.387
	l-11.934,6.892L21,113.08v-4.396h19.319c9.718,0,17.681-7.845,17.681-17.562V18.98C58,17.566,56.914,16.42,55.5,16.42"/>
<path style="fill:#E6E6E5;" d="M48.934,6.892L37,0v4.685H17.811C8.092,4.685,0,12.239,0,21.957v72.146c0,1.413,1.086,2.56,2.5,2.56
	S5,95.516,5,94.103V21.957C5,15.06,10.914,9.685,17.811,9.685H37v4.098L48.934,6.892z"/>
<path style="fill:#FFFFFF;" d="M102.501,35.949c9.602,0,14.89,6.095,14.89,14.511v8.74c0,8.415-5.288,14.51-14.89,14.51H88.314
	V35.949H102.501z M113.237,59.2v-8.74c0-6.581-3.885-11.059-11.329-11.059h-9.44v30.856h9.44
	C109.353,70.258,113.237,65.779,113.237,59.2"/>
<path style="fill:#FFFFFF;" d="M139.669,74.467c-10.574,0-15.862-7.498-15.862-16.617v-6.041c0-9.118,5.288-16.616,15.862-16.616
	c10.572,0,15.86,7.498,15.86,16.616v6.041C155.529,66.969,150.241,74.467,139.669,74.467 M151.321,58.068v-6.478
	c0-7.119-3.615-12.893-11.652-12.893c-8.039,0-11.654,5.773-11.654,12.893v6.478c0,7.118,3.615,12.893,11.654,12.893
	C147.707,70.961,151.321,65.187,151.321,58.068"/>
<path style="fill:#FFFFFF;" d="M188.325,48.356c-0.162-5.288-4.045-9.658-10.843-9.658c-7.768,0-11.276,5.341-11.276,12.894v6.259
	c0,7.444,3.346,13.217,11.545,13.217c6.745,0,10.897-3.831,10.897-11.114v-0.971h-10.572v-3.507h14.619v3.992
	c0,8.687-5.341,15-14.997,15c-10.521,0-15.7-7.498-15.7-16.725v-5.987c0-9.658,5.449-16.563,15.43-16.563
	c9.224,0,14.728,5.72,14.889,13.164H188.325z"/>
<polygon style="fill:#FFFFFF;" points="207.366,39.455 195.821,39.455 195.821,35.949 223.119,35.949 223.119,39.455 
	211.574,39.455 211.574,73.71 207.366,73.71 "/>
<path style="fill:#FFFFFF;" d="M241.082,74.467c-10.574,0-15.862-7.498-15.862-16.617v-6.041c0-9.118,5.288-16.616,15.862-16.616
	c10.574,0,15.86,7.498,15.86,16.616v6.041C256.942,66.969,251.656,74.467,241.082,74.467 M252.734,58.068v-6.478
	c0-7.119-3.615-12.893-11.652-12.893c-8.039,0-11.654,5.773-11.654,12.893v6.478c0,7.118,3.615,12.893,11.654,12.893
	C249.119,70.961,252.734,65.187,252.734,58.068"/>
<polygon style="fill:#FFFFFF;" points="297.778,73.71 293.731,73.71 283.753,40.534 273.771,73.71 269.726,73.71 260.771,35.949 
	264.816,35.949 271.938,68.101 281.647,35.949 285.855,35.949 295.566,68.101 302.688,35.949 306.733,35.949 "/>
<polygon style="fill:#FFFFFF;" points="312.447,35.949 316.386,35.949 337.154,66.969 337.154,35.949 341.256,35.949 341.256,73.71 
	337.317,73.71 316.549,42.69 316.549,73.71 312.447,73.71 "/>
<polygon style="fill:#E6E6E5;" points="394.658,73.71 390.667,73.71 390.667,44.04 380.256,64.595 376.262,64.595 365.851,44.04 
	365.851,73.71 361.858,73.71 361.858,35.949 365.797,35.949 378.258,60.871 390.721,35.949 394.658,35.949 "/>
<polygon style="fill:#E6E6E5;" points="403.394,35.949 428.316,35.949 428.316,39.455 407.602,39.455 407.602,52.834 
	426.754,52.834 426.754,56.34 407.602,56.34 407.602,70.204 428.371,70.204 428.371,73.71 403.394,73.71 "/>
<path style="fill:#E6E6E5;" d="M449.353,35.949c9.602,0,14.89,6.095,14.89,14.511v8.74c0,8.415-5.288,14.51-14.89,14.51h-14.188
	V35.949H449.353z M460.088,59.2v-8.74c0-6.581-3.885-11.059-11.328-11.059h-9.44v30.856h9.44
	C456.203,70.258,460.088,65.779,460.088,59.2"/>
<rect x="472.062" y="35.949" style="fill:#E6E6E5;" width="4.207" height="37.762"/>
<path style="fill:#E6E6E5;" d="M515.001,73.71h-4.151l-3.453-9.602h-17.425l-3.399,9.602h-4.154l14.188-37.761h4.208L515.001,73.71z
	 M491.158,60.764h15.051l-7.5-20.987L491.158,60.764z"/>
</svg>
